<svg width="30" height="30" viewBox="0 0 30 30" fill="none" xmlns="http://www.w3.org/2000/svg">
<path d="M5.625 22.0312C5.74932 22.0312 5.86855 21.9819 5.95646 21.894C6.04436 21.806 6.09375 21.6868 6.09375 21.5625V18.75C6.09375 18.6257 6.04436 18.5065 5.95646 18.4185C5.86855 18.3306 5.74932 18.2812 5.625 18.2812C5.50068 18.2812 5.38145 18.3306 5.29354 18.4185C5.20564 18.5065 5.15625 18.6257 5.15625 18.75V21.5625C5.15625 21.6868 5.20564 21.806 5.29354 21.894C5.38145 21.9819 5.50068 22.0312 5.625 22.0312Z" fill="black"/>
<path d="M28.5938 13.125H22.1525L17.7151 1.82979C17.5963 1.52816 17.3769 1.27682 17.0942 1.11828C16.8114 0.959746 16.4825 0.903748 16.1632 0.959759C15.8439 1.01577 15.5537 1.18035 15.3417 1.42567C15.1298 1.67098 15.0091 1.98198 15 2.30604C14.9915 1.98164 14.8711 1.67014 14.6592 1.42439C14.4472 1.17863 14.1568 1.01374 13.8372 0.957673C13.5175 0.901606 13.1884 0.957815 12.9054 1.11677C12.6225 1.27572 12.4033 1.52764 12.2849 1.82979L7.84752 13.125H1.40625C1.28193 13.125 1.1627 13.1744 1.07479 13.2623C0.986886 13.3502 0.9375 13.4694 0.9375 13.5937V16.4062C0.937609 16.5196 0.978789 16.629 1.05341 16.7144C1.12804 16.7997 1.23105 16.8551 1.34338 16.8703L2.67 27.483C2.78256 28.3834 3.58289 29.0625 4.53176 29.0625H25.4682C26.4171 29.0625 27.2174 28.3834 27.33 27.483L28.6566 16.8703C28.7689 16.8551 28.872 16.7997 28.9466 16.7144C29.0212 16.629 29.0624 16.5196 29.0625 16.4062V13.5937C29.0625 13.4694 29.0131 13.3502 28.9252 13.2623C28.8373 13.1744 28.7181 13.125 28.5938 13.125ZM15.9766 2.15669C16.0136 2.07173 16.0751 1.99967 16.1531 1.94961C16.2311 1.89955 16.3222 1.87375 16.4149 1.87545C16.5075 1.87716 16.5976 1.9063 16.6737 1.95919C16.7498 2.01209 16.8086 2.08636 16.8425 2.17263L21.8274 14.8613L20.9548 15.2041L15.97 2.5154C15.9473 2.45815 15.9362 2.39697 15.9373 2.33539C15.9384 2.27381 15.9518 2.21307 15.9766 2.15669ZM20.2356 15.9375H9.76436L10.5009 14.0625H19.4991L20.2356 15.9375ZM14.9026 2.85823C14.9618 2.70828 14.9947 2.54929 15 2.38819C15.0053 2.54929 15.0382 2.70828 15.0974 2.85823L19.1309 13.125H10.8691L14.9026 2.85823ZM13.1575 2.17269C13.1794 2.11454 13.2126 2.06132 13.2553 2.01613C13.2979 1.97093 13.3491 1.93467 13.4059 1.90943C13.4626 1.8842 13.5239 1.87051 13.586 1.86915C13.6481 1.86778 13.7098 1.87878 13.7677 1.90151C13.8255 1.92423 13.8782 1.95822 13.9228 2.0015C13.9674 2.04478 14.0029 2.0965 14.0273 2.15363C14.0517 2.21076 14.0645 2.27218 14.065 2.3343C14.0654 2.39643 14.0535 2.45803 14.03 2.51552L9.04518 15.2041L8.1726 14.8613L13.1575 2.17269ZM1.875 14.0625H7.4792L7.12863 14.9548C7.08318 15.0705 7.08555 15.1995 7.13523 15.3135C7.18491 15.4275 7.27782 15.517 7.39354 15.5625L8.34797 15.9375H1.875V14.0625ZM26.3997 27.3667C26.3457 27.799 25.9453 28.125 25.4681 28.125H4.53176C4.05475 28.125 3.65432 27.799 3.60012 27.3667L2.28879 16.875H27.7112L26.3997 27.3667ZM28.125 15.9375H21.652L22.6065 15.5625C22.7222 15.517 22.8151 15.4275 22.8648 15.3135C22.9144 15.1995 22.9168 15.0705 22.8714 14.9548L22.5208 14.0625H28.125V15.9375Z" fill="black"/>
<path d="M5.625 26.7188C5.74932 26.7188 5.86855 26.6694 5.95646 26.5815C6.04436 26.4935 6.09375 26.3743 6.09375 26.25V23.4375C6.09375 23.3132 6.04436 23.194 5.95646 23.106C5.86855 23.0181 5.74932 22.9688 5.625 22.9688C5.50068 22.9688 5.38145 23.0181 5.29354 23.106C5.20564 23.194 5.15625 23.3132 5.15625 23.4375V26.25C5.15625 26.3743 5.20564 26.4935 5.29354 26.5815C5.38145 26.6694 5.50068 26.7188 5.625 26.7188Z" fill="black"/>
<path d="M7.5 22.0312C7.62432 22.0312 7.74355 21.9819 7.83146 21.894C7.91936 21.806 7.96875 21.6868 7.96875 21.5625V18.75C7.96875 18.6257 7.91936 18.5065 7.83146 18.4185C7.74355 18.3306 7.62432 18.2812 7.5 18.2812C7.37568 18.2812 7.25645 18.3306 7.16854 18.4185C7.08064 18.5065 7.03125 18.6257 7.03125 18.75V21.5625C7.03125 21.6868 7.08064 21.806 7.16854 21.894C7.25645 21.9819 7.37568 22.0312 7.5 22.0312Z" fill="black"/>
<path d="M7.5 26.7188C7.62432 26.7188 7.74355 26.6694 7.83146 26.5815C7.91936 26.4935 7.96875 26.3743 7.96875 26.25V23.4375C7.96875 23.3132 7.91936 23.194 7.83146 23.106C7.74355 23.0181 7.62432 22.9688 7.5 22.9688C7.37568 22.9688 7.25645 23.0181 7.16854 23.106C7.08064 23.194 7.03125 23.3132 7.03125 23.4375V26.25C7.03125 26.3743 7.08064 26.4935 7.16854 26.5815C7.25645 26.6694 7.37568 26.7188 7.5 26.7188Z" fill="black"/>
<path d="M9.375 22.0312C9.49932 22.0312 9.61855 21.9819 9.70646 21.894C9.79436 21.806 9.84375 21.6868 9.84375 21.5625V18.75C9.84375 18.6257 9.79436 18.5065 9.70646 18.4185C9.61855 18.3306 9.49932 18.2812 9.375 18.2812C9.25068 18.2812 9.13145 18.3306 9.04354 18.4185C8.95564 18.5065 8.90625 18.6257 8.90625 18.75V21.5625C8.90625 21.6868 8.95564 21.806 9.04354 21.894C9.13145 21.9819 9.25068 22.0312 9.375 22.0312Z" fill="black"/>
<path d="M9.375 26.7188C9.49932 26.7188 9.61855 26.6694 9.70646 26.5815C9.79436 26.4935 9.84375 26.3743 9.84375 26.25V23.4375C9.84375 23.3132 9.79436 23.194 9.70646 23.106C9.61855 23.0181 9.49932 22.9688 9.375 22.9688C9.25068 22.9688 9.13145 23.0181 9.04354 23.106C8.95564 23.194 8.90625 23.3132 8.90625 23.4375V26.25C8.90625 26.3743 8.95564 26.4935 9.04354 26.5815C9.13145 26.6694 9.25068 26.7188 9.375 26.7188Z" fill="black"/>
<path d="M11.25 22.0312C11.3743 22.0312 11.4935 21.9819 11.5815 21.894C11.6694 21.806 11.7188 21.6868 11.7188 21.5625V18.75C11.7188 18.6257 11.6694 18.5065 11.5815 18.4185C11.4935 18.3306 11.3743 18.2812 11.25 18.2812C11.1257 18.2812 11.0065 18.3306 10.9185 18.4185C10.8306 18.5065 10.7812 18.6257 10.7812 18.75V21.5625C10.7812 21.6868 10.8306 21.806 10.9185 21.894C11.0065 21.9819 11.1257 22.0312 11.25 22.0312Z" fill="black"/>
<path d="M11.25 26.7188C11.3743 26.7188 11.4935 26.6694 11.5815 26.5815C11.6694 26.4935 11.7188 26.3743 11.7188 26.25V23.4375C11.7188 23.3132 11.6694 23.194 11.5815 23.106C11.4935 23.0181 11.3743 22.9688 11.25 22.9688C11.1257 22.9688 11.0065 23.0181 10.9185 23.106C10.8306 23.194 10.7812 23.3132 10.7812 23.4375V26.25C10.7812 26.3743 10.8306 26.4935 10.9185 26.5815C11.0065 26.6694 11.1257 26.7188 11.25 26.7188Z" fill="black"/>
<path d="M18.75 22.0312C18.8743 22.0312 18.9935 21.9819 19.0815 21.894C19.1694 21.806 19.2188 21.6868 19.2188 21.5625V18.75C19.2188 18.6257 19.1694 18.5065 19.0815 18.4185C18.9935 18.3306 18.8743 18.2812 18.75 18.2812C18.6257 18.2812 18.5065 18.3306 18.4185 18.4185C18.3306 18.5065 18.2812 18.6257 18.2812 18.75V21.5625C18.2812 21.6868 18.3306 21.806 18.4185 21.894C18.5065 21.9819 18.6257 22.0312 18.75 22.0312Z" fill="black"/>
<path d="M18.75 26.7188C18.8743 26.7188 18.9935 26.6694 19.0815 26.5815C19.1694 26.4935 19.2188 26.3743 19.2188 26.25V23.4375C19.2188 23.3132 19.1694 23.194 19.0815 23.106C18.9935 23.0181 18.8743 22.9688 18.75 22.9688C18.6257 22.9688 18.5065 23.0181 18.4185 23.106C18.3306 23.194 18.2812 23.3132 18.2812 23.4375V26.25C18.2812 26.3743 18.3306 26.4935 18.4185 26.5815C18.5065 26.6694 18.6257 26.7188 18.75 26.7188Z" fill="black"/>
<path d="M20.625 22.0312C20.7493 22.0312 20.8685 21.9819 20.9565 21.894C21.0444 21.806 21.0938 21.6868 21.0938 21.5625V18.75C21.0938 18.6257 21.0444 18.5065 20.9565 18.4185C20.8685 18.3306 20.7493 18.2812 20.625 18.2812C20.5007 18.2812 20.3815 18.3306 20.2935 18.4185C20.2056 18.5065 20.1562 18.6257 20.1562 18.75V21.5625C20.1562 21.6868 20.2056 21.806 20.2935 21.894C20.3815 21.9819 20.5007 22.0312 20.625 22.0312Z" fill="black"/>
<path d="M20.625 26.7188C20.7493 26.7188 20.8685 26.6694 20.9565 26.5815C21.0444 26.4935 21.0938 26.3743 21.0938 26.25V23.4375C21.0938 23.3132 21.0444 23.194 20.9565 23.106C20.8685 23.0181 20.7493 22.9688 20.625 22.9688C20.5007 22.9688 20.3815 23.0181 20.2935 23.106C20.2056 23.194 20.1562 23.3132 20.1562 23.4375V26.25C20.1562 26.3743 20.2056 26.4935 20.2935 26.5815C20.3815 26.6694 20.5007 26.7188 20.625 26.7188Z" fill="black"/>
<path d="M22.5 22.0312C22.6243 22.0312 22.7435 21.9819 22.8315 21.894C22.9194 21.806 22.9688 21.6868 22.9688 21.5625V18.75C22.9688 18.6257 22.9194 18.5065 22.8315 18.4185C22.7435 18.3306 22.6243 18.2812 22.5 18.2812C22.3757 18.2812 22.2565 18.3306 22.1685 18.4185C22.0806 18.5065 22.0312 18.6257 22.0312 18.75V21.5625C22.0312 21.6868 22.0806 21.806 22.1685 21.894C22.2565 21.9819 22.3757 22.0312 22.5 22.0312Z" fill="black"/>
<path d="M22.5 26.7188C22.6243 26.7188 22.7435 26.6694 22.8315 26.5815C22.9194 26.4935 22.9688 26.3743 22.9688 26.25V23.4375C22.9688 23.3132 22.9194 23.194 22.8315 23.106C22.7435 23.0181 22.6243 22.9688 22.5 22.9688C22.3757 22.9688 22.2565 23.0181 22.1685 23.106C22.0806 23.194 22.0312 23.3132 22.0312 23.4375V26.25C22.0312 26.3743 22.0806 26.4935 22.1685 26.5815C22.2565 26.6694 22.3757 26.7188 22.5 26.7188Z" fill="black"/>
<path d="M24.375 22.0312C24.4993 22.0312 24.6185 21.9819 24.7065 21.894C24.7944 21.806 24.8438 21.6868 24.8438 21.5625V18.75C24.8438 18.6257 24.7944 18.5065 24.7065 18.4185C24.6185 18.3306 24.4993 18.2812 24.375 18.2812C24.2507 18.2812 24.1315 18.3306 24.0435 18.4185C23.9556 18.5065 23.9062 18.6257 23.9062 18.75V21.5625C23.9062 21.6868 23.9556 21.806 24.0435 21.894C24.1315 21.9819 24.2507 22.0312 24.375 22.0312Z" fill="black"/>
<path d="M24.375 26.7188C24.4993 26.7188 24.6185 26.6694 24.7065 26.5815C24.7944 26.4935 24.8438 26.3743 24.8438 26.25V23.4375C24.8438 23.3132 24.7944 23.194 24.7065 23.106C24.6185 23.0181 24.4993 22.9688 24.375 22.9688C24.2507 22.9688 24.1315 23.0181 24.0435 23.106C23.9556 23.194 23.9062 23.3132 23.9062 23.4375V26.25C23.9062 26.3743 23.9556 26.4935 24.0435 26.5815C24.1315 26.6694 24.2507 26.7188 24.375 26.7188Z" fill="black"/>
<path d="M15 22.0312C15.1243 22.0312 15.2435 21.9819 15.3315 21.894C15.4194 21.806 15.4688 21.6868 15.4688 21.5625V18.75C15.4688 18.6257 15.4194 18.5065 15.3315 18.4185C15.2435 18.3306 15.1243 18.2812 15 18.2812C14.8757 18.2812 14.7565 18.3306 14.6685 18.4185C14.5806 18.5065 14.5312 18.6257 14.5312 18.75V21.5625C14.5312 21.6868 14.5806 21.806 14.6685 21.894C14.7565 21.9819 14.8757 22.0312 15 22.0312Z" fill="black"/>
<path d="M15 26.7188C15.1243 26.7188 15.2435 26.6694 15.3315 26.5815C15.4194 26.4935 15.4688 26.3743 15.4688 26.25V23.4375C15.4688 23.3132 15.4194 23.194 15.3315 23.106C15.2435 23.0181 15.1243 22.9688 15 22.9688C14.8757 22.9688 14.7565 23.0181 14.6685 23.106C14.5806 23.194 14.5312 23.3132 14.5312 23.4375V26.25C14.5312 26.3743 14.5806 26.4935 14.6685 26.5815C14.7565 26.6694 14.8757 26.7188 15 26.7188Z" fill="black"/>
<path d="M13.125 22.0312C13.2493 22.0312 13.3685 21.9819 13.4565 21.894C13.5444 21.806 13.5938 21.6868 13.5938 21.5625V18.75C13.5938 18.6257 13.5444 18.5065 13.4565 18.4185C13.3685 18.3306 13.2493 18.2812 13.125 18.2812C13.0007 18.2812 12.8815 18.3306 12.7935 18.4185C12.7056 18.5065 12.6562 18.6257 12.6562 18.75V21.5625C12.6562 21.6868 12.7056 21.806 12.7935 21.894C12.8815 21.9819 13.0007 22.0312 13.125 22.0312Z" fill="black"/>
<path d="M13.125 26.7188C13.2493 26.7188 13.3685 26.6694 13.4565 26.5815C13.5444 26.4935 13.5938 26.3743 13.5938 26.25V23.4375C13.5938 23.3132 13.5444 23.194 13.4565 23.106C13.3685 23.0181 13.2493 22.9688 13.125 22.9688C13.0007 22.9688 12.8815 23.0181 12.7935 23.106C12.7056 23.194 12.6562 23.3132 12.6562 23.4375V26.25C12.6562 26.3743 12.7056 26.4935 12.7935 26.5815C12.8815 26.6694 13.0007 26.7188 13.125 26.7188Z" fill="black"/>
<path d="M16.875 22.0312C16.9993 22.0312 17.1185 21.9819 17.2065 21.894C17.2944 21.806 17.3438 21.6868 17.3438 21.5625V18.75C17.3438 18.6257 17.2944 18.5065 17.2065 18.4185C17.1185 18.3306 16.9993 18.2812 16.875 18.2812C16.7507 18.2812 16.6315 18.3306 16.5435 18.4185C16.4556 18.5065 16.4062 18.6257 16.4062 18.75V21.5625C16.4062 21.6868 16.4556 21.806 16.5435 21.894C16.6315 21.9819 16.7507 22.0312 16.875 22.0312Z" fill="black"/>
<path d="M16.875 26.7188C16.9993 26.7188 17.1185 26.6694 17.2065 26.5815C17.2944 26.4935 17.3438 26.3743 17.3438 26.25V23.4375C17.3438 23.3132 17.2944 23.194 17.2065 23.106C17.1185 23.0181 16.9993 22.9688 16.875 22.9688C16.7507 22.9688 16.6315 23.0181 16.5435 23.106C16.4556 23.194 16.4062 23.3132 16.4062 23.4375V26.25C16.4062 26.3743 16.4556 26.4935 16.5435 26.5815C16.6315 26.6694 16.7507 26.7188 16.875 26.7188Z" fill="black"/>
</svg>
