<svg width="285" height="31" viewBox="0 0 285 31" fill="none" xmlns="http://www.w3.org/2000/svg">
<path d="M142.5 17.7939C142.691 17.7939 142.879 17.7104 143.014 17.565C143.15 17.4197 143.228 17.2182 143.228 17.0127C143.228 16.8072 143.15 16.6057 143.014 16.4604C142.879 16.315 142.691 16.2314 142.5 16.2314C142.309 16.2314 142.121 16.315 141.986 16.4604C141.85 16.6057 141.772 16.8072 141.772 17.0127C141.772 17.2182 141.85 17.4197 141.986 17.565C142.121 17.7104 142.309 17.7939 142.5 17.7939Z" fill="white"/>
<path d="M142.5 14.6299C142.691 14.6299 142.879 14.5463 143.014 14.401C143.15 14.2557 143.228 14.0541 143.228 13.8486C143.228 13.6432 143.15 13.4416 143.014 13.2963C142.879 13.151 142.691 13.0674 142.5 13.0674C142.309 13.0674 142.121 13.151 141.986 13.2963C141.85 13.4416 141.772 13.6432 141.772 13.8486C141.772 14.0549 141.85 14.2557 141.986 14.401C142.121 14.5463 142.309 14.6299 142.5 14.6299Z" fill="white"/>
<path d="M142.5 11.4658C142.691 11.4658 142.879 11.3822 143.014 11.2369C143.15 11.0916 143.228 10.89 143.228 10.6846C143.228 10.4791 143.15 10.2775 143.014 10.1322C142.879 9.98691 142.691 9.90332 142.5 9.90332C142.309 9.90332 142.121 9.98691 141.986 10.1322C141.85 10.2775 141.772 10.4791 141.772 10.6846C141.772 10.8908 141.85 11.0916 141.986 11.2369C142.121 11.3822 142.309 11.4658 142.5 11.4658Z" fill="white"/>
<path d="M160.4 8.77072C158.5 8.77072 156.673 9.44979 155.191 10.6725V4.98166C155.191 4.55018 154.865 4.20041 154.463 4.20041C151.809 4.20041 149.49 5.76611 148.263 8.08174C147.406 4.88611 145.536 2.06182 142.91 0.136113C142.663 -0.0453711 142.337 -0.0453711 142.09 0.136113C139.464 2.06182 137.594 4.88635 136.737 8.08213C135.51 5.76635 133.191 4.20041 130.537 4.20041C130.135 4.20041 129.809 4.55018 129.809 4.98166V10.6725C128.327 9.44979 126.5 8.77072 124.6 8.77072C124.198 8.77072 123.873 9.12049 123.873 9.55197V11.496C123.873 17.8185 128.211 23.0731 133.86 24.0082C132.996 24.9122 132.459 26.1735 132.459 27.5678V29.3567C132.459 29.6363 132.598 29.8947 132.824 30.034C132.936 30.1033 133.061 30.1379 133.186 30.1379C133.313 30.1379 133.439 30.1024 133.553 30.0317L134.898 29.19C136.112 28.4302 137.497 28.0285 138.903 28.0285C140.06 28.0285 141.148 27.544 141.965 26.6642C142.166 26.4476 142.345 26.2133 142.5 25.9649C142.655 26.2133 142.834 26.4476 143.035 26.6642C143.852 27.544 144.94 28.0285 146.097 28.0285C147.503 28.0285 148.888 28.4302 150.102 29.19L151.447 30.0317C151.561 30.1025 151.687 30.138 151.814 30.138C151.939 30.138 152.064 30.1034 152.176 30.0341C152.402 29.8947 152.541 29.6364 152.541 29.3567V27.5678C152.541 26.173 152.003 24.9113 151.139 24.0071C152.462 23.7877 153.745 23.3288 154.921 22.6485C155.275 22.4438 155.408 21.9699 155.217 21.5901C155.026 21.2103 154.585 21.0682 154.231 21.2728C152.862 22.0646 151.327 22.5132 149.764 22.583C152.93 20.608 155.087 16.9678 155.187 12.7877C156.363 11.4187 157.959 10.563 159.672 10.3734V11.4961C159.672 13.2925 159.263 15.0764 158.49 16.6549C158.303 17.0368 158.44 17.5092 158.795 17.71C158.903 17.7711 159.019 17.8 159.133 17.8C159.395 17.8 159.648 17.6481 159.778 17.3823C160.661 15.5803 161.127 13.5449 161.127 11.496V9.55197C161.127 9.12049 160.802 8.77072 160.4 8.77072ZM142.5 1.74104C145.535 4.17244 147.333 7.99697 147.333 12.0781C147.333 16.1592 145.535 19.9838 142.5 22.4152C139.465 19.9838 137.667 16.1592 137.667 12.0781C137.667 7.99697 139.465 4.17244 142.5 1.74104ZM131.264 5.81275C134.051 6.19729 136.212 8.76112 136.212 11.8567L136.215 11.8567C136.214 11.9306 136.212 12.0042 136.212 12.0782C136.212 16.0902 137.761 19.8801 140.436 22.5904C135.356 22.4503 131.264 17.9699 131.264 12.4824V5.81275ZM125.328 11.496V10.3733C127.041 10.5628 128.637 11.4185 129.813 12.7876C129.913 16.9681 132.071 20.6086 135.236 22.5835C129.735 22.3418 125.328 17.4615 125.328 11.496ZM138.903 26.466C137.24 26.466 135.602 26.9412 134.165 27.8399L133.914 27.9972V27.5678C133.914 25.6867 135.339 24.1563 137.091 24.1563H141.682C141.556 24.6828 141.302 25.1657 140.934 25.5608C140.392 26.1446 139.671 26.466 138.903 26.466ZM151.086 27.9972L150.835 27.8399C149.398 26.9412 147.76 26.466 146.097 26.466C145.329 26.466 144.608 26.1446 144.066 25.5608C143.699 25.1657 143.444 24.6827 143.318 24.1563H147.909C149.661 24.1563 151.086 25.6867 151.086 27.5678V27.9972ZM153.736 12.4824C153.736 17.9698 149.644 22.4503 144.564 22.5903C147.239 19.88 148.788 16.0901 148.788 12.0781C148.788 12.0041 148.786 11.9304 148.785 11.8565L148.788 11.8567C148.788 8.76112 150.949 6.19729 153.736 5.81275V12.4824Z" fill="white"/>
<path d="M157.198 19.0729C157.006 19.0729 156.819 19.1557 156.684 19.3018C156.548 19.4471 156.471 19.6479 156.471 19.8541C156.471 20.0596 156.548 20.2612 156.684 20.4065C156.819 20.5518 157.006 20.6354 157.198 20.6354C157.39 20.6354 157.577 20.5518 157.713 20.4065C157.848 20.2612 157.925 20.0596 157.925 19.8541C157.925 19.6479 157.848 19.4471 157.713 19.3018C157.577 19.1557 157.39 19.0729 157.198 19.0729Z" fill="white"/>
<line y1="14.5" x2="110.833" y2="14.5" stroke="white"/>
<line x1="174.167" y1="14.5" x2="285" y2="14.5" stroke="white"/>
</svg>
