<svg width="39" height="31" viewBox="0 0 39 31" fill="none" xmlns="http://www.w3.org/2000/svg">
<path d="M37.3998 8.77072C35.5003 8.77072 33.6726 9.44979 32.1911 10.6725V4.98166C32.1911 4.55018 31.8654 4.20041 31.4635 4.20041C28.8094 4.20041 26.4902 5.76611 25.2626 8.08174C24.406 4.88611 22.5361 2.06182 19.9105 0.136113C19.6629 -0.0453711 19.3372 -0.0453711 19.0896 0.136113C16.4639 2.06182 14.5939 4.88635 13.7374 8.08213C12.5097 5.76635 10.1908 4.20041 7.53652 4.20041C7.13472 4.20041 6.80889 4.55018 6.80889 4.98166V10.6725C5.32742 9.44979 3.4996 8.77072 1.60019 8.77072C1.19831 8.77072 0.872551 9.12049 0.872551 9.55197V11.496C0.872551 17.8185 5.21144 23.0731 10.8601 24.0082C9.99636 24.9122 9.45864 26.1735 9.45864 27.5678V29.3567C9.45864 29.6363 9.59784 29.8947 9.82377 30.034C9.93604 30.1033 10.0612 30.1379 10.1863 30.1379C10.3128 30.1379 10.4395 30.1024 10.5526 30.0317L11.8979 29.19C13.1122 28.4302 14.4971 28.0285 15.9026 28.0285C17.06 28.0285 18.1475 27.544 18.9648 26.6642C19.1661 26.4476 19.3447 26.2133 19.5 25.9649C19.6553 26.2133 19.8339 26.4476 20.0351 26.6642C20.8524 27.544 21.94 28.0285 23.0973 28.0285C24.5029 28.0285 25.8878 28.4302 27.102 29.19L28.4473 30.0317C28.5605 30.1025 28.687 30.138 28.8137 30.138C28.9388 30.138 29.064 30.1034 29.1762 30.0341C29.402 29.8947 29.5413 29.6364 29.5413 29.3567V27.5678C29.5413 26.173 29.0031 24.9113 28.1388 24.0071C29.4617 23.7877 30.7454 23.3288 31.9215 22.6485C32.2752 22.4438 32.4075 21.9699 32.2169 21.5901C32.0264 21.2103 31.585 21.0682 31.2312 21.2728C29.8625 22.0646 28.3266 22.5132 26.7644 22.583C29.9296 20.608 32.0869 16.9678 32.1873 12.7877C33.363 11.4187 34.9592 10.563 36.6721 10.3734V11.4961C36.6721 13.2925 36.2633 15.0764 35.49 16.6549C35.303 17.0368 35.4396 17.5092 35.7952 17.71C35.9033 17.7711 36.0191 17.8 36.1334 17.8C36.395 17.8 36.6477 17.6481 36.778 17.3823C37.6608 15.5803 38.1275 13.5449 38.1275 11.496V9.55197C38.1275 9.12049 37.8016 8.77072 37.3998 8.77072ZM19.5 1.74104C22.5353 4.17244 24.3327 7.99697 24.3327 12.0781C24.3327 16.1592 22.5353 19.9838 19.5 22.4152C16.4647 19.9838 14.6673 16.1592 14.6673 12.0781C14.6673 7.99697 16.4647 4.17244 19.5 1.74104ZM8.26416 5.81275C11.0514 6.19729 13.2121 8.76112 13.2121 11.8567L13.2153 11.8567C13.2143 11.9306 13.2121 12.0042 13.2121 12.0782C13.2121 16.0902 14.7614 19.8801 17.4364 22.5904C12.3564 22.4503 8.26416 17.9699 8.26416 12.4824V5.81275ZM2.32782 11.496V10.3733C4.04067 10.5628 5.63703 11.4185 6.8126 12.7876C6.91301 16.9681 9.07074 20.6086 12.2363 22.5835C6.73452 22.3418 2.32782 17.4615 2.32782 11.496ZM15.9026 26.466C14.2399 26.466 12.6018 26.9412 11.1652 27.8399L10.9139 27.9972V27.5678C10.9139 25.6867 12.3393 24.1563 14.0913 24.1563H18.6818C18.556 24.6828 18.3015 25.1657 17.9345 25.5608C17.3922 26.1446 16.6706 26.466 15.9026 26.466ZM28.0861 27.9972L27.8348 27.8399C26.3983 26.9412 24.7601 26.466 23.0974 26.466C22.3294 26.466 21.6078 26.1446 21.0655 25.5608C20.6986 25.1657 20.4441 24.6827 20.3182 24.1563H24.9087C26.6607 24.1563 28.0861 25.6867 28.0861 27.5678V27.9972ZM30.7358 12.4824C30.7358 17.9698 26.6436 22.4503 21.5636 22.5903C24.2386 19.88 25.7879 16.0901 25.7879 12.0781C25.7879 12.0041 25.7858 11.9304 25.7847 11.8565L25.7879 11.8567C25.7879 8.76112 27.9486 6.19729 30.7358 5.81275V12.4824Z" fill="white"/>
</svg>
