<svg width="73" height="72" viewBox="0 0 73 72" fill="none" xmlns="http://www.w3.org/2000/svg">
<path d="M41.2196 32.1074C41.2191 32.235 41.1777 32.3591 41.1016 32.4615C39.5279 34.5466 38.985 38.0323 38.985 40.6053C38.985 42.9107 39.7168 46.2626 40.9364 47.8835C41.0093 47.9842 41.0486 48.1054 41.0486 48.2297C41.0486 48.3541 41.0093 48.4752 40.9364 48.5759C40.8675 48.6781 40.7677 48.7555 40.6515 48.7966C40.5353 48.8377 40.409 48.8403 40.2912 48.8041C37.8913 48.1117 35.3577 46.0108 33.6975 43.3671C31.4164 44.9664 28.9281 46.2476 26.3012 47.1754C26.1961 47.2131 26.0824 47.2198 25.9736 47.1947C25.8647 47.1696 25.7654 47.1137 25.6875 47.0337C25.6097 46.9544 25.5558 46.8547 25.5322 46.7461C25.5085 46.6376 25.516 46.5245 25.5537 46.42C26.4806 43.7967 27.7591 41.3112 29.3542 39.0316C26.7183 37.3635 24.6331 34.8299 23.9171 32.4379C23.8824 32.319 23.886 32.1922 23.9274 32.0755C23.9688 31.9587 24.0459 31.858 24.1477 31.7875C24.2496 31.717 24.371 31.6803 24.4948 31.6827C24.6187 31.685 24.7386 31.7263 24.8377 31.8006C26.4586 33.0202 29.8105 33.7519 32.1159 33.7519C34.6889 33.7519 38.1825 33.1933 40.2676 31.6353C40.3824 31.5458 40.5263 31.5019 40.6715 31.5121C40.8168 31.5223 40.9532 31.5858 41.0544 31.6904C41.1608 31.8032 41.2199 31.9524 41.2196 32.1074ZM27.1353 45.6017C29.4064 44.687 31.553 43.4894 33.5244 42.0373C33.593 41.9882 33.6711 41.9537 33.7537 41.9361C33.8363 41.9185 33.9216 41.9181 34.0044 41.935C34.0857 41.9531 34.1622 41.9885 34.2288 42.0387C34.2953 42.0889 34.3502 42.1529 34.3899 42.2262C35.5247 44.2074 37.1506 45.8631 39.1109 47.0337C38.2789 44.9913 37.8385 42.8105 37.8126 40.6053C37.8006 38.2308 38.2301 35.8749 39.0795 33.6575C36.8637 34.5134 34.507 34.9458 32.1317 34.9322C29.9286 34.9029 27.7506 34.4598 25.7111 33.626C26.8772 35.5899 28.5339 37.2168 30.5187 38.3471C30.5914 38.3884 30.6543 38.445 30.7032 38.5129C30.7521 38.5808 30.7858 38.6584 30.8019 38.7405C30.8207 38.8218 30.8213 38.9064 30.8036 38.988C30.7859 39.0696 30.7504 39.1463 30.6996 39.2126C29.2465 41.1832 28.0489 43.33 27.1353 45.6017Z" fill="white"/>
<path d="M73 0.586739L73 71.4099C73 71.5664 72.9378 71.7165 72.8271 71.8272C72.7165 71.9378 72.5664 72 72.4098 72C72.2533 72 72.1032 71.9378 71.9926 71.8272C71.8819 71.7165 71.8197 71.5664 71.8197 71.4099L71.8197 1.18474L1.58671 1.18474C1.4302 1.18474 1.2801 1.12256 1.16943 1.01189C1.05876 0.901222 0.996583 0.751122 0.996583 0.594612C0.996583 0.438095 1.05876 0.288002 1.16943 0.17733C1.2801 0.066658 1.4302 0.00447846 1.58671 0.00447846L72.402 0.00447931C72.4798 0.00238122 72.5572 0.0158853 72.6296 0.0442056C72.7021 0.0725259 72.7682 0.115075 72.8239 0.169358C72.8797 0.223634 72.924 0.288537 72.9542 0.360223C72.9844 0.431916 73 0.508935 73 0.586739Z" fill="white"/>
<path d="M73 22.0831C73.0031 22.2105 72.9649 22.3355 72.891 22.4393C72.8172 22.5432 72.7118 22.6204 72.5905 22.6594C72.4691 22.6983 72.3385 22.697 72.218 22.6555C72.0975 22.614 71.9936 22.5347 71.922 22.4293C69.3018 18.5974 60.0014 16.7483 54.7689 19.0223C54.6588 19.0749 54.5351 19.092 54.4148 19.0714C54.2946 19.0508 54.1836 18.9934 54.0973 18.9071C54.011 18.8208 53.9536 18.7099 53.933 18.5896C53.9124 18.4693 53.9295 18.3456 53.9821 18.2355C56.2561 13.003 54.407 3.7026 50.5751 1.08243C50.456 0.994127 50.3739 0.864717 50.3449 0.719322C50.3158 0.573929 50.3418 0.422918 50.4177 0.295595C50.5061 0.176285 50.6361 0.0946331 50.7819 0.0669251C50.9277 0.0392189 51.0787 0.0674877 51.2046 0.146095C55.2883 2.82921 57.2868 11.626 55.5164 17.4801C61.3626 15.7097 70.1673 17.7476 72.8977 21.7448C72.9655 21.8444 73.0012 21.9625 73 22.0831Z" fill="white"/>
<path d="M48.6001 14.0338C48.6234 16.554 47.9859 19.0363 46.7511 21.2334C45.6841 23.1006 44.1962 24.6931 42.4058 25.8843C40.6153 27.0756 38.5716 27.8327 36.4372 28.0955C34.3028 28.3583 32.1365 28.1195 30.1105 27.3981C28.0846 26.6768 26.2549 25.4927 24.7669 23.9401C23.5549 22.6156 22.634 21.0519 22.0635 19.3497C21.4929 17.6475 21.2854 15.8447 21.4543 14.0574C21.5848 12.4377 22.3202 10.9264 23.5142 9.82416C24.7083 8.72196 26.2735 8.10961 27.8985 8.10893C28.6823 8.08585 29.4623 8.22805 30.1875 8.52629C30.9128 8.82454 31.5672 9.27214 32.108 9.83997C32.656 10.4893 33.0695 11.241 33.3248 12.0514C33.5801 12.8618 33.672 13.7148 33.5952 14.561C33.5658 15.1538 33.4102 15.7335 33.1388 16.2613C32.8674 16.7891 32.4865 17.253 32.0215 17.6218C31.5467 18.0049 30.9646 18.231 30.3558 18.2687C29.7469 18.3065 29.1413 18.1541 28.6228 17.8327C28.1044 17.5112 27.6986 17.0366 27.4617 16.4744C27.2248 15.9122 27.1684 15.2903 27.3005 14.6947C27.4879 14.0412 27.8496 13.4509 28.347 12.9873L28.6224 12.6804C29.0636 12.2663 29.3426 11.7083 29.4092 11.1068C29.4564 10.4852 29.0866 9.47015 28.5201 9.35999C28.3209 9.34783 28.1212 9.34783 27.9221 9.35999C26.596 9.359 25.3177 9.85561 24.3401 10.7516C23.3625 11.6477 22.7567 12.8779 22.6424 14.199C22.4905 15.8278 22.6816 17.4703 23.2033 19.0207C23.7251 20.5711 24.566 21.9949 25.6717 23.2004C27.0327 24.6193 28.706 25.701 30.5585 26.3595C32.411 27.0181 34.3916 27.2353 36.3428 26.9938C38.294 26.7524 40.1619 26.0591 41.7981 24.9689C43.4342 23.8787 44.7934 22.4218 45.7675 20.714C46.7416 18.9197 47.3163 16.936 47.4521 14.8988C47.5879 12.8617 47.2817 10.8192 46.5544 8.9115C45.7278 6.69417 44.258 4.77417 42.3333 3.39755C40.4085 2.02094 38.1166 1.25042 35.7511 1.18477C35.5946 1.18477 35.4445 1.12259 35.3338 1.01192C35.2231 0.901251 35.161 0.751152 35.161 0.594641C35.161 0.43813 35.2231 0.288031 35.3338 0.177361C35.4445 0.0666906 35.5946 0.00451296 35.7511 0.00451296C38.3304 0.0878965 40.8273 0.932541 42.9275 2.43209C45.0277 3.93165 46.6373 6.01907 47.5536 8.43153C48.2311 10.2224 48.5854 12.1192 48.6001 14.0338ZM28.3863 15.3478C28.3906 15.6447 28.4639 15.9364 28.6005 16.2C28.737 16.4636 28.9331 16.6917 29.1731 16.8664C29.4966 17.0657 29.8731 17.162 30.2525 17.1423C30.632 17.1226 30.9965 16.988 31.2976 16.7563C31.6308 16.4819 31.9041 16.142 32.1004 15.7576C32.2966 15.3731 32.4117 14.9524 32.4385 14.5216C32.5687 13.1152 32.1357 11.7145 31.2347 10.6268C30.9872 10.3561 30.7039 10.1205 30.3927 9.92652C30.4991 10.2947 30.5521 10.6763 30.5501 11.0596C30.4922 11.9441 30.1245 12.7798 29.5115 13.4201L29.2125 13.7741C28.8435 14.1074 28.5716 14.5342 28.4256 15.0095C28.4003 15.1205 28.3871 15.2339 28.3863 15.3478Z" fill="white"/>
<path d="M73 37.2455C73 37.402 72.9378 37.5521 72.8271 37.6628C72.7164 37.7734 72.5664 37.8356 72.4098 37.8356C72.2533 37.8356 72.1032 37.7734 71.9926 37.6628C71.8819 37.5521 71.8197 37.402 71.8197 37.2455C71.7473 34.8992 70.9815 32.6269 69.619 30.7154C68.2564 28.8039 66.3582 27.3389 64.1638 26.5052C62.256 25.7779 60.2136 25.4716 58.1764 25.6074C56.1393 25.7432 54.1556 26.3179 52.3613 27.292C50.6535 28.2661 49.1966 29.6253 48.1064 31.2615C47.0162 32.8976 46.3229 34.7655 46.0815 36.7167C45.84 38.6679 46.0572 40.6485 46.7158 42.501C47.3743 44.3535 48.456 46.0268 49.8749 47.3878C51.0783 48.4942 52.5007 49.3355 54.05 49.8573C55.5992 50.3792 57.2408 50.5699 58.8684 50.4171C60.191 50.3047 61.4231 49.6997 62.3208 48.7219C63.2184 47.7441 63.7161 46.4648 63.7153 45.1374C63.7153 44.9329 63.7153 44.7283 63.7153 44.5316C63.6051 43.9729 62.6059 43.6346 61.9685 43.6503C61.367 43.7169 60.809 43.9959 60.3948 44.4372L60.0093 44.6496C59.529 45.1737 58.9095 45.5503 58.2232 45.7354C57.6287 45.8625 57.0095 45.8029 56.4502 45.5647C55.891 45.3266 55.4189 44.9215 55.0986 44.4048C54.7782 43.8882 54.6253 43.2852 54.6607 42.6783C54.6961 42.0715 54.918 41.4904 55.2962 41.0144C55.665 40.5494 56.1288 40.1685 56.6566 39.8971C57.1845 39.6257 57.7642 39.4701 58.3569 39.4408C59.2031 39.3639 60.0561 39.4558 60.8665 39.7111C61.6769 39.9664 62.4286 40.38 63.078 40.9279C63.6481 41.4603 64.0997 42.1068 64.4033 42.8253C64.707 43.5438 64.856 44.3182 64.8405 45.0981L64.8405 45.1611C64.8251 46.7677 64.2124 48.3111 63.1215 49.4907C62.0306 50.6703 60.5397 51.4016 58.9392 51.5423C57.1503 51.7075 55.3465 51.496 53.6444 50.9214C51.9422 50.3468 50.3793 49.4218 49.0565 48.2061C47.5039 46.7181 46.3199 44.8884 45.5985 42.8624C44.8771 40.8365 44.6383 38.6702 44.9011 36.5358C45.1639 34.4013 45.921 32.3577 47.1123 30.5672C48.3035 28.7767 49.8961 27.2889 51.7633 26.2219C53.7122 25.1671 55.8667 24.5478 58.0783 24.4065C60.2898 24.2652 62.5057 24.6054 64.573 25.4036C66.9915 26.3225 69.083 27.9381 70.5831 30.046C72.0831 32.1539 72.9242 34.6594 73 37.2455ZM55.8548 42.8871C55.849 43.2187 55.9482 43.5437 56.1381 43.8156C56.3468 44.0989 56.6305 44.3182 56.9572 44.4489C57.2839 44.5796 57.6406 44.6164 57.9871 44.5552C58.4624 44.4092 58.8893 44.1373 59.2225 43.7684L59.5529 43.4694C59.9945 43.0128 60.5547 42.6885 61.1704 42.5329C61.7862 42.3772 62.4331 42.3963 63.0386 42.5881C62.8532 42.2844 62.6283 42.0066 62.3698 41.7619C61.2897 40.8765 59.9055 40.4499 58.5143 40.5738C58.0835 40.6006 57.6628 40.7157 57.2784 40.912C56.894 41.1082 56.554 41.3815 56.2797 41.7147C56.02 42.052 55.8715 42.4617 55.8548 42.8871Z" fill="white"/>
</svg>
