<svg width="157" height="20" viewBox="0 0 157 20" fill="none" xmlns="http://www.w3.org/2000/svg">
<path d="M136.292 15.3489C136.199 15.3484 136.108 15.3216 136.03 15.2717C135.951 15.2217 135.888 15.1506 135.848 15.0666C135.808 14.9825 135.793 14.8889 135.804 14.7965C135.815 14.7041 135.851 14.6166 135.91 14.5441C137.441 12.7305 139.271 11.1911 141.319 9.99199C139.244 8.73977 137.419 7.11355 135.936 5.1958C135.867 5.09302 135.839 4.9676 135.858 4.84506C135.878 4.72251 135.943 4.61203 136.042 4.53608C136.145 4.46952 136.27 4.44349 136.392 4.46296C136.513 4.48243 136.624 4.54604 136.701 4.64163C138.287 6.68018 140.283 8.36351 142.56 9.58296C142.643 9.62347 142.714 9.68673 142.763 9.76549C142.813 9.84425 142.839 9.93532 142.839 10.0283C142.839 10.1212 142.813 10.2123 142.763 10.291C142.714 10.3698 142.643 10.4331 142.56 10.4736C140.296 11.6534 138.281 13.257 136.622 15.1972C136.535 15.2878 136.418 15.342 136.292 15.3489Z" fill="#F24472"/>
<path d="M139.677 19.2545H139.644C139.568 19.2513 139.494 19.2298 139.429 19.1919C139.363 19.154 139.308 19.1007 139.268 19.0368C139.208 18.951 133.429 10.4604 126.212 10.4604C126.081 10.4604 125.955 10.4082 125.862 10.3155C125.769 10.2227 125.717 10.0968 125.717 9.96558C125.717 9.83435 125.769 9.7085 125.862 9.61571C125.955 9.52292 126.081 9.47079 126.212 9.47079C133.423 9.49718 139.202 0.696475 139.261 0.610711C139.302 0.545395 139.358 0.490924 139.425 0.451887C139.492 0.41285 139.567 0.390392 139.644 0.386406C139.719 0.38239 139.794 0.395103 139.863 0.423625C139.933 0.452147 139.995 0.495768 140.046 0.551336C147.6 9.22669 156.011 9.49718 156.097 9.49718C156.218 9.51621 156.328 9.57943 156.405 9.67462C156.482 9.76981 156.521 9.89019 156.514 10.0125C156.508 10.1348 156.456 10.2503 156.369 10.3367C156.283 10.4231 156.167 10.4742 156.044 10.4802C155.959 10.4802 147.547 10.4274 140.013 19.0566C139.973 19.1106 139.923 19.1561 139.865 19.1901C139.807 19.2241 139.743 19.246 139.677 19.2545ZM129.431 10.0184C134.617 11.5687 138.529 16.3913 139.716 18.001C144.519 12.7232 149.54 10.7441 152.739 9.97218C149.546 9.13433 144.526 7.02322 139.723 1.71245C138.542 3.34856 134.623 8.37565 129.431 9.98537V10.0184Z" fill="#F24472"/>
<path d="M126.212 10.4868H78.2895C78.1582 10.4868 78.0324 10.4346 77.9396 10.3419C77.8468 10.2491 77.7947 10.1232 77.7947 9.99198C77.7947 9.86076 77.8468 9.73491 77.9396 9.64211C78.0324 9.54932 78.1582 9.49719 78.2895 9.49719H126.212C126.343 9.49719 126.469 9.54932 126.562 9.64211C126.654 9.73491 126.707 9.86076 126.707 9.99198C126.707 10.1232 126.654 10.2491 126.562 10.3419C126.469 10.4346 126.343 10.4868 126.212 10.4868Z" fill="#F24472"/>
<path d="M117.899 20C117.589 19.9994 117.28 19.9549 116.982 19.868C116.278 19.6547 115.673 19.1961 115.277 18.5753C114.881 17.9545 114.721 17.2125 114.825 16.4837C114.887 16.0723 115.064 15.6867 115.334 15.3706C115.605 15.0546 115.959 14.8208 116.355 14.6958C116.595 14.6382 116.843 14.6313 117.085 14.6756C117.327 14.7199 117.557 14.8145 117.761 14.9531C117.94 15.0711 118.092 15.2266 118.206 15.4087C118.32 15.5909 118.393 15.7956 118.42 16.0087C118.432 16.1375 118.393 16.266 118.312 16.3664C118.23 16.4668 118.112 16.5313 117.984 16.546C117.855 16.5606 117.726 16.5244 117.624 16.4449C117.522 16.3654 117.455 16.2491 117.437 16.1208C117.425 16.049 117.397 15.9808 117.356 15.9205C117.315 15.8602 117.262 15.8093 117.2 15.7712C117.114 15.7121 117.017 15.6715 116.915 15.6522C116.813 15.6329 116.707 15.6352 116.606 15.659C116.393 15.7375 116.205 15.8722 116.062 16.0487C115.92 16.2252 115.827 16.437 115.795 16.6618C115.736 17.1507 115.851 17.6447 116.12 18.0572C116.389 18.4697 116.795 18.7744 117.266 18.918C117.768 19.0438 118.295 19.0217 118.784 18.8543C119.274 18.6868 119.704 18.3813 120.024 17.9746C121.257 16.4309 120.875 13.9437 119.74 12.5913C119.109 11.9128 118.343 11.3747 117.49 11.0121C116.638 10.6495 115.718 10.4705 114.792 10.4868H114.667C114.602 10.4868 114.538 10.4739 114.478 10.449C114.419 10.4241 114.364 10.3875 114.319 10.3415C114.274 10.2954 114.238 10.2408 114.214 10.1808C114.189 10.1208 114.178 10.0567 114.178 9.99199C114.178 9.8619 114.23 9.73704 114.321 9.64443C114.412 9.55183 114.536 9.49893 114.667 9.4972H114.792C115.724 9.52155 116.651 9.34637 117.51 8.98342C118.369 8.62046 119.14 8.0781 119.773 7.39268C120.908 6.04025 121.29 3.55969 120.057 2.01594C119.74 1.60525 119.31 1.29677 118.82 1.129C118.329 0.961227 117.8 0.94159 117.299 1.07254C116.827 1.21501 116.421 1.5195 116.152 1.93229C115.883 2.34508 115.768 2.83966 115.828 3.32879C115.86 3.55354 115.953 3.76538 116.095 3.94189C116.238 4.11841 116.426 4.25305 116.639 4.33157C116.741 4.35614 116.847 4.35825 116.949 4.33774C117.052 4.31723 117.149 4.2746 117.233 4.21282C117.294 4.17539 117.347 4.12553 117.388 4.06644C117.429 4.00736 117.457 3.94036 117.47 3.86976C117.488 3.74152 117.555 3.62518 117.657 3.5457C117.759 3.46623 117.888 3.42993 118.017 3.4446C118.145 3.45927 118.263 3.52374 118.345 3.62418C118.426 3.72463 118.465 3.85305 118.453 3.98192C118.426 4.1941 118.353 4.39778 118.239 4.57889C118.125 4.76 117.973 4.91421 117.794 5.03088C117.591 5.17144 117.361 5.26711 117.119 5.31149C116.877 5.35586 116.627 5.34791 116.388 5.28817C115.991 5.1658 115.637 4.93362 115.366 4.61844C115.095 4.30327 114.919 3.91793 114.858 3.50692C114.751 2.78221 114.906 2.04303 115.295 1.42254C115.685 0.802047 116.283 0.341031 116.982 0.122539C117.673 -0.0577446 118.401 -0.0333725 119.078 0.192688C119.755 0.418749 120.352 0.836749 120.795 1.3958C122.385 3.37497 121.877 6.38331 120.499 8.03261C119.723 8.93751 118.721 9.62046 117.596 10.0118C118.72 10.4062 119.721 11.0886 120.499 11.991C121.877 13.6337 122.385 16.642 120.795 18.6278C120.442 19.0536 119.999 19.3971 119.499 19.6341C118.999 19.8712 118.453 19.996 117.899 20Z" fill="#F24472"/>
<path d="M20.2866 15.3489C20.2133 15.3476 20.1411 15.3304 20.0751 15.2985C20.009 15.2666 19.9507 15.2208 19.904 15.1642C18.2458 13.2238 16.2301 11.6201 13.9665 10.4406C13.8828 10.4001 13.8123 10.3368 13.7629 10.2581C13.7136 10.1793 13.6874 10.0882 13.6874 9.99529C13.6874 9.90234 13.7136 9.81127 13.7629 9.73251C13.8123 9.65375 13.8828 9.59049 13.9665 9.54997C16.2514 8.33162 18.256 6.64841 19.8512 4.60865C19.93 4.50409 20.0466 4.43451 20.1761 4.41478C20.3055 4.39506 20.4375 4.42675 20.5439 4.50309C20.6397 4.58091 20.703 4.69171 20.7213 4.81377C20.7396 4.93583 20.7116 5.06032 20.6429 5.16282C19.1603 7.08057 17.335 8.70679 15.2596 9.959C17.3095 11.1591 19.1409 12.6983 20.6759 14.5111C20.7575 14.6128 20.7957 14.7426 20.7821 14.8724C20.7685 15.0021 20.7043 15.1212 20.6033 15.2038C20.5178 15.2875 20.4059 15.3388 20.2866 15.3489Z" fill="#F24472"/>
<path d="M16.9023 19.2545C16.8326 19.2546 16.7636 19.2399 16.6999 19.2115C16.6363 19.1831 16.5793 19.1415 16.5328 19.0896C8.9922 10.4274 0.593931 10.5 0.508167 10.4868C0.377891 10.487 0.252526 10.4371 0.157983 10.3474C0.063441 10.2578 0.00694806 10.1353 0.000180564 10.0052C-0.00157544 9.9402 0.00949094 9.87551 0.0327473 9.81481C0.0560036 9.7541 0.0909941 9.69858 0.135719 9.6514C0.180444 9.60423 0.234027 9.56633 0.293405 9.53987C0.352784 9.51341 0.416794 9.49891 0.481778 9.4972C0.567542 9.4972 8.9988 9.22671 16.5328 0.55136C16.5848 0.495639 16.6484 0.451993 16.719 0.423497C16.7897 0.395001 16.8658 0.382348 16.9419 0.386429C17.0181 0.390357 17.0922 0.412845 17.1577 0.451938C17.2232 0.49103 17.2782 0.545543 17.3179 0.610735C17.3773 0.696499 23.1565 9.4972 30.3672 9.4972C30.4984 9.4972 30.6243 9.54933 30.7171 9.64212C30.8099 9.73491 30.862 9.86077 30.862 9.99199C30.862 10.1232 30.8099 10.2491 30.7171 10.3419C30.6243 10.4347 30.4984 10.4868 30.3672 10.4868C23.1499 10.4868 17.3707 18.951 17.3179 19.0632C17.276 19.1273 17.2195 19.1805 17.1529 19.2183C17.0864 19.2562 17.0118 19.2776 16.9353 19.2809L16.9023 19.2545ZM3.84636 9.93921C7.03942 10.6781 12.0599 12.6639 16.8627 17.968C18.0502 16.3583 21.9624 11.5357 27.1544 9.98539C21.9558 8.37567 18.0436 3.34858 16.8561 1.67949C12.0533 6.99025 7.03942 9.10137 3.84636 9.93921Z" fill="#F24472"/>
<path d="M78.2895 10.4868H30.3475C30.2162 10.4868 30.0904 10.4346 29.9976 10.3419C29.9048 10.2491 29.8527 10.1232 29.8527 9.99198C29.8527 9.86076 29.9048 9.73491 29.9976 9.64211C30.0904 9.54932 30.2162 9.49719 30.3475 9.49719H78.2697C78.4009 9.49719 78.5268 9.54932 78.6196 9.64211C78.7124 9.73491 78.7645 9.86076 78.7645 9.99198C78.7645 10.1232 78.7124 10.2491 78.6196 10.3419C78.5268 10.4346 78.4009 10.4868 78.2697 10.4868H78.2895Z" fill="#F24472"/>
<path d="M38.6797 20C38.1245 19.992 37.5779 19.8619 37.0785 19.6191C36.5791 19.3762 36.1393 19.0265 35.7901 18.5948C34.1936 16.6156 34.7016 13.6007 36.0804 11.958C36.8607 11.0554 37.8638 10.373 38.9898 9.97881C37.8622 9.58767 36.8584 8.90478 36.0804 7.99964C34.7016 6.35034 34.1936 3.38158 35.7901 1.36283C36.2352 0.811958 36.8303 0.401709 37.5034 0.181621C38.1765 -0.0384673 38.899 -0.0589823 39.5835 0.122553C40.2897 0.333473 40.8963 0.791552 41.2924 1.41301C41.6886 2.03446 41.8477 2.77775 41.7408 3.50693C41.6789 3.91045 41.5061 4.28882 41.2416 4.59985C40.9772 4.91088 40.6316 5.14233 40.2433 5.26839C40.0042 5.32771 39.7552 5.33544 39.513 5.29108C39.2707 5.24671 39.0406 5.15127 38.8381 5.0111C38.6596 4.89346 38.5084 4.73899 38.3946 4.55806C38.2808 4.37713 38.2071 4.17394 38.1783 3.96214C38.1653 3.83213 38.2034 3.70214 38.2848 3.59987C38.3661 3.49759 38.4841 3.43111 38.6138 3.41457C38.7441 3.39973 38.875 3.43726 38.9777 3.51891C39.0804 3.60056 39.1464 3.71965 39.1613 3.84999C39.1748 3.92058 39.2028 3.98758 39.2437 4.04667C39.2847 4.10575 39.3375 4.15561 39.3988 4.19304C39.4834 4.25442 39.5802 4.29681 39.6827 4.3173C39.7852 4.3378 39.8909 4.33592 39.9926 4.31179C40.206 4.23389 40.3943 4.09943 40.5372 3.9228C40.6801 3.74617 40.7724 3.53401 40.804 3.30901C40.8639 2.81988 40.7492 2.3253 40.48 1.91251C40.2109 1.49972 39.8046 1.19523 39.3329 1.05276C38.8323 0.923211 38.3047 0.943559 37.8156 1.11128C37.3266 1.279 36.8975 1.5867 36.5818 1.99617C35.3415 3.53992 35.7242 6.02047 36.8589 7.37291C37.4934 8.05563 38.2653 8.59617 39.1238 8.95891C39.9824 9.32166 40.908 9.49838 41.8398 9.47742H41.9651C42.0958 9.47913 42.2207 9.53181 42.3131 9.62423C42.4056 9.71666 42.4582 9.84152 42.4599 9.97221C42.4599 10.1034 42.4078 10.2293 42.315 10.3221C42.2222 10.4149 42.0964 10.467 41.9651 10.467H41.8398C40.908 10.4461 39.9824 10.6228 39.1238 10.9855C38.2653 11.3483 37.4934 11.8888 36.8589 12.5715C35.7242 13.891 35.3415 16.4111 36.5818 17.9549C36.8975 18.3643 37.3266 18.672 37.8156 18.8397C38.3047 19.0075 38.8323 19.0278 39.3329 18.8983C39.8039 18.7546 40.2094 18.4499 40.4784 18.0374C40.7473 17.6249 40.8626 17.131 40.804 16.642C40.7724 16.417 40.6801 16.2049 40.5372 16.0282C40.3943 15.8516 40.206 15.7171 39.9926 15.6392C39.8913 15.6154 39.7861 15.6131 39.6838 15.6325C39.5816 15.6518 39.4845 15.6923 39.3988 15.7514C39.3367 15.7895 39.2835 15.8404 39.2425 15.9007C39.2016 15.961 39.1739 16.0293 39.1613 16.101C39.1552 16.1666 39.1361 16.2303 39.1051 16.2884C39.0741 16.3465 39.0318 16.3978 38.9807 16.4393C38.9296 16.4809 38.8707 16.5118 38.8075 16.5302C38.7443 16.5487 38.678 16.5544 38.6126 16.5469C38.5471 16.5395 38.4838 16.519 38.4264 16.4868C38.369 16.4545 38.3186 16.4112 38.2781 16.3592C38.2377 16.3072 38.208 16.2477 38.1909 16.1841C38.1738 16.1205 38.1695 16.0541 38.1783 15.9889C38.207 15.7762 38.2807 15.572 38.3944 15.39C38.5082 15.208 38.6594 15.0523 38.8381 14.9333C39.0435 14.7995 39.2742 14.7094 39.516 14.6685C39.7577 14.6277 40.0053 14.637 40.2433 14.6958C40.6372 14.8225 40.9877 15.0573 41.2548 15.3733C41.5219 15.6894 41.6948 16.0741 41.754 16.4837C41.8589 17.2144 41.6972 17.9585 41.2987 18.5799C40.9002 19.2013 40.2914 19.6585 39.5835 19.8681C39.2899 19.9537 38.9857 19.9981 38.6797 20Z" fill="#F24472"/>
</svg>
