<svg width="79" height="55" viewBox="0 0 79 55" fill="none" xmlns="http://www.w3.org/2000/svg">
<path d="M14.1236 6.29475C-7.05221 2.95119 0.192156 4.9016 6.46132 6.29475C6.46132 24.87 10.2228 60.3488 25.2688 53.6618C44.0763 45.303 46.166 58.5378 67.7598 53.6618C89.3536 48.7858 70.5461 -6.94011 67.7598 0.7222C64.9735 8.38451 40.5934 10.4742 14.1236 6.29475Z" fill="#F24472"/>
<path d="M23.1 31.12C22.524 31.12 21.96 31.028 21.408 30.844C20.856 30.652 20.356 30.384 19.908 30.04C19.46 29.688 19.1 29.236 18.828 28.684C18.556 28.124 18.42 27.512 18.42 26.848C18.42 25.6 18.856 24.56 19.728 23.728C20.6 22.896 21.684 22.48 22.98 22.48C24.092 22.48 24.996 22.812 25.692 23.476C26.396 24.132 26.764 25.06 26.796 26.26H25.512C25.456 25.396 25.232 24.732 24.84 24.268C24.448 23.796 23.92 23.56 23.256 23.56C22.456 23.56 21.848 23.832 21.432 24.376C21.024 24.912 20.82 25.684 20.82 26.692C20.82 27.788 21.04 28.612 21.48 29.164C21.92 29.708 22.536 29.98 23.328 29.98C23.952 29.98 24.468 29.76 24.876 29.32C25.292 28.872 25.56 28.272 25.68 27.52H26.964C26.788 28.72 26.356 29.62 25.668 30.22C24.98 30.82 24.124 31.12 23.1 31.12ZM30.9747 24.88C31.7987 24.88 32.4507 25.096 32.9307 25.528C33.4107 25.952 33.6507 26.592 33.6507 27.448V31H32.8107L32.0067 29.596C31.6547 30.612 30.8987 31.12 29.7387 31.12C29.1547 31.12 28.6867 30.98 28.3347 30.7C27.9907 30.42 27.8187 30.052 27.8187 29.596C27.8187 28.972 28.1347 28.472 28.7667 28.096C29.3987 27.712 30.3467 27.476 31.6107 27.388V27.064C31.6107 26.304 31.2587 25.924 30.5547 25.924C30.1307 25.924 29.8067 26.052 29.5827 26.308C29.3587 26.556 29.2467 26.908 29.2467 27.364H28.1907C28.1907 26.588 28.4347 25.98 28.9227 25.54C29.4107 25.1 30.0947 24.88 30.9747 24.88ZM30.4947 29.932C30.8387 29.932 31.1067 29.784 31.2987 29.488C31.4907 29.192 31.5947 28.772 31.6107 28.228C30.4427 28.284 29.8587 28.636 29.8587 29.284C29.8587 29.476 29.9147 29.632 30.0267 29.752C30.1467 29.872 30.3027 29.932 30.4947 29.932ZM39.3977 31L37.9577 28.228H37.3097V31H35.2697V21.88H37.3097V27.268H37.6937L39.9977 25H41.4137L39.4577 26.848L41.7497 31H39.3977ZM42.8445 22.156C43.0525 21.94 43.3245 21.832 43.6605 21.832C43.9965 21.832 44.2685 21.94 44.4765 22.156C44.6845 22.364 44.7885 22.624 44.7885 22.936C44.7885 23.248 44.6845 23.512 44.4765 23.728C44.2685 23.936 43.9965 24.04 43.6605 24.04C43.3245 24.04 43.0525 23.936 42.8445 23.728C42.6445 23.512 42.5445 23.248 42.5445 22.936C42.5445 22.624 42.6445 22.364 42.8445 22.156ZM42.6525 31V25H44.6925V31H42.6525ZM50.8793 28.96H51.9353C51.8633 29.68 51.5913 30.22 51.1193 30.58C50.6473 30.94 50.0353 31.12 49.2833 31.12C48.2833 31.12 47.4673 30.832 46.8353 30.256C46.2033 29.672 45.8873 28.908 45.8873 27.964C45.8873 27.052 46.1793 26.312 46.7633 25.744C47.3473 25.168 48.0993 24.88 49.0193 24.88C49.4193 24.88 49.7873 24.94 50.1233 25.06C50.4673 25.18 50.7713 25.364 51.0353 25.612C51.3073 25.852 51.5153 26.18 51.6593 26.596C51.8033 27.004 51.8673 27.48 51.8513 28.024H48.0593C48.0993 28.736 48.2353 29.256 48.4673 29.584C48.7073 29.904 49.0713 30.064 49.5593 30.064C50.3353 30.064 50.7753 29.696 50.8793 28.96ZM49.0673 25.684C48.4433 25.684 48.1073 26.208 48.0593 27.256H49.8833C49.8753 26.688 49.8113 26.284 49.6913 26.044C49.5713 25.804 49.3633 25.684 49.0673 25.684ZM54.6288 26.344C54.6288 26.528 54.7408 26.68 54.9648 26.8C55.1968 26.92 55.4768 27.024 55.8048 27.112C56.1328 27.2 56.4608 27.308 56.7888 27.436C57.1168 27.556 57.3928 27.752 57.6168 28.024C57.8488 28.296 57.9648 28.636 57.9648 29.044C57.9648 29.66 57.7288 30.16 57.2568 30.544C56.7848 30.928 56.1768 31.12 55.4328 31.12C54.6728 31.12 54.0488 30.932 53.5608 30.556C53.0808 30.18 52.8408 29.648 52.8408 28.96H53.9568C53.9568 29.368 54.0808 29.676 54.3288 29.884C54.5768 30.092 54.8928 30.196 55.2768 30.196C55.5568 30.196 55.7848 30.148 55.9608 30.052C56.1368 29.956 56.2248 29.828 56.2248 29.668C56.2248 29.5 56.1088 29.364 55.8768 29.26C55.6528 29.156 55.3768 29.064 55.0488 28.984C54.7208 28.896 54.3928 28.788 54.0648 28.66C53.7368 28.532 53.4568 28.324 53.2248 28.036C53.0008 27.748 52.8888 27.388 52.8888 26.956C52.8888 26.332 53.1088 25.832 53.5488 25.456C53.9888 25.072 54.5728 24.88 55.3008 24.88C55.9968 24.88 56.5488 25.052 56.9568 25.396C57.3728 25.74 57.5808 26.216 57.5808 26.824H56.4768C56.4768 26.496 56.3848 26.248 56.2008 26.08C56.0248 25.904 55.7768 25.816 55.4568 25.816C55.1928 25.816 54.9888 25.868 54.8448 25.972C54.7008 26.068 54.6288 26.192 54.6288 26.344Z" fill="white"/>
</svg>
